<svg xmlns="http://www.w3.org/2000/svg" version="1.1" xmlns:xlink="http://www.w3.org/1999/xlink" xmlns:svgjs="http://svgjs.dev/svgjs" width="1500" height="606" viewBox="0 0 1500 606"><g transform="matrix(1,0,0,1,-0.9090909090909918,-0.5375490287617595)"><svg viewBox="0 0 396 160" data-background-color="#11182e" preserveAspectRatio="xMidYMid meet" height="606" width="1500" xmlns="http://www.w3.org/2000/svg" xmlns:xlink="http://www.w3.org/1999/xlink"><g id="tight-bounds" transform="matrix(1,0,0,1,0.2400000000000091,0.14192713630673381)"><svg viewBox="0 0 395.52 159.71614572738653" height="159.71614572738653" width="395.52"><g><svg viewBox="0 0 497.7550618814376 200.99999999999997" height="159.71614572738653" width="395.52"><g><rect width="5.655269464688428" height="200.99999999999997" x="202.97956320474782" y="0" fill="#ffffff" opacity="1" stroke-width="0" stroke="transparent" fill-opacity="1" class="rect-qz-0" data-fill-palette-color="primary" rx="1%" id="qz-0" data-palette-color="#ffffff"></rect></g><g transform="matrix(1,0,0,1,223.43920299584573,0.4999999999999858)"><svg viewBox="0 0 274.31585888559187 200" height="200" width="274.31585888559187"><g id="textblocktransform"><svg viewBox="0 0 274.31585888559187 200" height="200" width="274.31585888559187" id="textblock"><g><svg viewBox="0 0 274.31585888559187 200" height="200" width="274.31585888559187"><g transform="matrix(1,0,0,1,0,0)"><svg width="274.31585888559187" viewBox="2.049999999999999 -37.099999999999994 211.19999999999996 147.89999999999998" height="200" data-palette-color="#ffffff"><svg></svg><svg></svg><svg></svg><g class="wordmark-text-0" data-fill-palette-color="primary" id="text-0"><path d="M28.8-18.15c2.033 0.567 3.633 1.59 4.8 3.07 1.167 1.487 1.75 3.363 1.75 5.63v0c0 3.033-1.14 5.367-3.42 7-2.287 1.633-5.613 2.45-9.98 2.45v0h-16.7v-35h15.7c4 0 7.093 0.8 9.28 2.4 2.18 1.6 3.27 3.817 3.27 6.65v0c0 1.833-0.423 3.417-1.27 4.75-0.853 1.333-1.997 2.35-3.43 3.05zM20.5-30.95h-10.25v11.2h10.25c2.567 0 4.543-0.477 5.93-1.43 1.38-0.947 2.07-2.337 2.07-4.17v0c0-1.833-0.69-3.227-2.07-4.18-1.387-0.947-3.363-1.42-5.93-1.42zM21.75-4.05c2.833 0 4.967-0.467 6.4-1.4 1.433-0.933 2.15-2.4 2.15-4.4v0c0-3.9-2.85-5.85-8.55-5.85v0h-11.5v11.65zM56.55-26.75c3.367 0 6.043 0.973 8.03 2.92 1.98 1.953 2.97 4.813 2.97 8.58v0 15.25h-4.8v-14.7c0-2.567-0.617-4.5-1.85-5.8-1.233-1.3-3-1.95-5.3-1.95v0c-2.6 0-4.65 0.757-6.15 2.27-1.5 1.52-2.25 3.697-2.25 6.53v0 13.65h-4.8v-37.1h4.8v14.35c1-1.267 2.31-2.25 3.93-2.95 1.613-0.7 3.42-1.05 5.42-1.05zM96.8-26.5h4.8v26.5h-4.6v-4.2c-1.067 1.467-2.417 2.583-4.05 3.35-1.633 0.767-3.433 1.15-5.4 1.15v0c-2.567 0-4.867-0.567-6.9-1.7-2.033-1.133-3.623-2.727-4.77-4.78-1.153-2.047-1.73-4.403-1.73-7.07v0c0-2.667 0.577-5.017 1.73-7.05 1.147-2.033 2.737-3.617 4.77-4.75 2.033-1.133 4.333-1.7 6.9-1.7v0c1.9 0 3.65 0.357 5.25 1.07 1.6 0.72 2.933 1.78 4 3.18v0zM87.95-3.9c1.667 0 3.183-0.393 4.55-1.18 1.367-0.78 2.433-1.88 3.2-3.3 0.767-1.413 1.15-3.037 1.15-4.87v0c0-1.833-0.383-3.46-1.15-4.88-0.767-1.413-1.833-2.503-3.2-3.27-1.367-0.767-2.883-1.15-4.55-1.15v0c-1.7 0-3.223 0.383-4.57 1.15-1.353 0.767-2.42 1.857-3.2 3.27-0.787 1.42-1.18 3.047-1.18 4.88v0c0 1.833 0.393 3.457 1.18 4.87 0.78 1.42 1.847 2.52 3.2 3.3 1.347 0.787 2.87 1.18 4.57 1.18zM115.3-22.05c0.833-1.533 2.067-2.7 3.7-3.5 1.633-0.8 3.617-1.2 5.95-1.2v0 4.65c-0.267-0.033-0.633-0.05-1.1-0.05v0c-2.6 0-4.64 0.773-6.12 2.32-1.487 1.553-2.23 3.763-2.23 6.63v0 13.2h-4.8v-26.5h4.6zM150.8-26.5h4.8v26.5h-4.6v-4.2c-1.067 1.467-2.417 2.583-4.05 3.35-1.633 0.767-3.433 1.15-5.4 1.15v0c-2.567 0-4.867-0.567-6.9-1.7-2.033-1.133-3.623-2.727-4.77-4.78-1.153-2.047-1.73-4.403-1.73-7.07v0c0-2.667 0.577-5.017 1.73-7.05 1.147-2.033 2.737-3.617 4.77-4.75 2.033-1.133 4.333-1.7 6.9-1.7v0c1.9 0 3.65 0.357 5.25 1.07 1.6 0.72 2.933 1.78 4 3.18v0zM141.95-3.9c1.667 0 3.183-0.393 4.55-1.18 1.367-0.78 2.433-1.88 3.2-3.3 0.767-1.413 1.15-3.037 1.15-4.87v0c0-1.833-0.383-3.46-1.15-4.88-0.767-1.413-1.833-2.503-3.2-3.27-1.367-0.767-2.883-1.15-4.55-1.15v0c-1.7 0-3.223 0.383-4.57 1.15-1.353 0.767-2.42 1.857-3.2 3.27-0.787 1.42-1.18 3.047-1.18 4.88v0c0 1.833 0.393 3.457 1.18 4.87 0.78 1.42 1.847 2.52 3.2 3.3 1.347 0.787 2.87 1.18 4.57 1.18zM177.15-5l1.5 3.45c-0.7 0.6-1.567 1.057-2.6 1.37-1.033 0.32-2.1 0.48-3.2 0.48v0c-2.667 0-4.733-0.717-6.2-2.15-1.467-1.433-2.2-3.483-2.2-6.15v0-24.3h4.8v5.8h7.6v3.95h-7.6v14.35c0 1.433 0.36 2.533 1.08 3.3 0.713 0.767 1.737 1.15 3.07 1.15v0c1.467 0 2.717-0.417 3.75-1.25z" fill="#ffffff" fill-rule="nonzero" stroke="none" stroke-width="1" stroke-linecap="butt" stroke-linejoin="miter" stroke-miterlimit="10" stroke-dasharray="" stroke-dashoffset="0" font-family="none" font-weight="none" font-size="none" text-anchor="none" style="mix-blend-mode: normal" data-fill-palette-color="primary" opacity="1"></path><path transform="translate(0,50.55)" d="M15.45 0.4c-2.633 0-5.173-0.41-7.62-1.23-2.453-0.813-4.38-1.87-5.78-3.17v0l1.85-3.9c1.333 1.2 3.043 2.173 5.13 2.92 2.08 0.753 4.22 1.13 6.42 1.13v0c2.9 0 5.067-0.493 6.5-1.48 1.433-0.98 2.15-2.287 2.15-3.92v0c0-1.2-0.39-2.177-1.17-2.93-0.787-0.747-1.753-1.32-2.9-1.72-1.153-0.4-2.78-0.85-4.88-1.35v0c-2.633-0.633-4.757-1.267-6.37-1.9-1.62-0.633-3.003-1.61-4.15-2.93-1.153-1.313-1.73-3.087-1.73-5.32v0c0-1.867 0.493-3.55 1.48-5.05 0.98-1.5 2.47-2.7 4.47-3.6 2-0.9 4.483-1.35 7.45-1.35v0c2.067 0 4.1 0.267 6.1 0.8 2 0.533 3.717 1.3 5.15 2.3v0l-1.65 4c-1.467-0.933-3.033-1.643-4.7-2.13-1.667-0.48-3.3-0.72-4.9-0.72v0c-2.833 0-4.957 0.517-6.37 1.55-1.42 1.033-2.13 2.367-2.13 4v0c0 1.2 0.4 2.173 1.2 2.92 0.8 0.753 1.793 1.337 2.98 1.75 1.18 0.42 2.787 0.863 4.82 1.33v0c2.633 0.633 4.75 1.267 6.35 1.9 1.6 0.633 2.977 1.6 4.13 2.9 1.147 1.3 1.72 3.05 1.72 5.25v0c0 1.833-0.5 3.507-1.5 5.02-1 1.52-2.517 2.72-4.55 3.6-2.033 0.887-4.533 1.33-7.5 1.33zM47.15 0.3c-2.7 0-5.11-0.583-7.23-1.75-2.113-1.167-3.77-2.777-4.97-4.83-1.2-2.047-1.8-4.37-1.8-6.97v0c0-2.6 0.6-4.927 1.8-6.98 1.2-2.047 2.857-3.647 4.97-4.8 2.12-1.147 4.53-1.72 7.23-1.72v0c2.4 0 4.543 0.483 6.43 1.45 1.88 0.967 3.337 2.367 4.37 4.2v0l-3.65 2.35c-0.833-1.267-1.867-2.217-3.1-2.85-1.233-0.633-2.6-0.95-4.1-0.95v0c-1.733 0-3.293 0.383-4.68 1.15-1.38 0.767-2.463 1.857-3.25 3.27-0.78 1.42-1.17 3.047-1.17 4.88v0c0 1.867 0.39 3.507 1.17 4.92 0.787 1.42 1.87 2.513 3.25 3.28 1.387 0.767 2.947 1.15 4.68 1.15v0c1.5 0 2.867-0.317 4.1-0.95 1.233-0.633 2.267-1.583 3.1-2.85v0l3.65 2.3c-1.033 1.833-2.49 3.24-4.37 4.22-1.887 0.987-4.03 1.48-6.43 1.48zM77.95-26.75c3.367 0 6.04 0.973 8.02 2.92 1.987 1.953 2.98 4.813 2.98 8.58v0 15.25h-4.8v-14.7c0-2.567-0.617-4.5-1.85-5.8-1.233-1.3-3-1.95-5.3-1.95v0c-2.6 0-4.65 0.757-6.15 2.27-1.5 1.52-2.25 3.697-2.25 6.53v0 13.65h-4.8v-37.1h4.8v14.35c1-1.267 2.31-2.25 3.93-2.95 1.613-0.7 3.42-1.05 5.42-1.05zM109.35 0.3c-2.633 0-5-0.583-7.1-1.75-2.1-1.167-3.74-2.777-4.92-4.83-1.187-2.047-1.78-4.37-1.78-6.97v0c0-2.6 0.593-4.927 1.78-6.98 1.18-2.047 2.82-3.647 4.92-4.8 2.1-1.147 4.467-1.72 7.1-1.72v0c2.633 0 4.993 0.573 7.08 1.72 2.08 1.153 3.713 2.753 4.9 4.8 1.18 2.053 1.77 4.38 1.77 6.98v0c0 2.6-0.59 4.923-1.77 6.97-1.187 2.053-2.82 3.663-4.9 4.83-2.087 1.167-4.447 1.75-7.08 1.75zM109.35-3.9c1.7 0 3.227-0.393 4.58-1.18 1.347-0.78 2.403-1.88 3.17-3.3 0.767-1.413 1.15-3.037 1.15-4.87v0c0-1.833-0.383-3.46-1.15-4.88-0.767-1.413-1.823-2.503-3.17-3.27-1.353-0.767-2.88-1.15-4.58-1.15v0c-1.7 0-3.223 0.383-4.57 1.15-1.353 0.767-2.42 1.857-3.2 3.27-0.787 1.42-1.18 3.047-1.18 4.88v0c0 1.833 0.393 3.457 1.18 4.87 0.78 1.42 1.847 2.52 3.2 3.3 1.347 0.787 2.87 1.18 4.57 1.18zM141.1 0.3c-2.633 0-5-0.583-7.1-1.75-2.1-1.167-3.74-2.777-4.92-4.83-1.187-2.047-1.78-4.37-1.78-6.97v0c0-2.6 0.593-4.927 1.78-6.98 1.18-2.047 2.82-3.647 4.92-4.8 2.1-1.147 4.467-1.72 7.1-1.72v0c2.633 0 4.993 0.573 7.08 1.72 2.08 1.153 3.713 2.753 4.9 4.8 1.18 2.053 1.77 4.38 1.77 6.98v0c0 2.6-0.59 4.923-1.77 6.97-1.187 2.053-2.82 3.663-4.9 4.83-2.087 1.167-4.447 1.75-7.08 1.75zM141.1-3.9c1.7 0 3.227-0.393 4.58-1.18 1.347-0.78 2.403-1.88 3.17-3.3 0.767-1.413 1.15-3.037 1.15-4.87v0c0-1.833-0.383-3.46-1.15-4.88-0.767-1.413-1.823-2.503-3.17-3.27-1.353-0.767-2.88-1.15-4.58-1.15v0c-1.7 0-3.223 0.383-4.57 1.15-1.353 0.767-2.42 1.857-3.2 3.27-0.787 1.42-1.18 3.047-1.18 4.88v0c0 1.833 0.393 3.457 1.18 4.87 0.78 1.42 1.847 2.52 3.2 3.3 1.347 0.787 2.87 1.18 4.57 1.18zM169.55 0.3c-2.567 0-4.55-0.71-5.95-2.13-1.4-1.413-2.1-3.403-2.1-5.97v0-29.3h4.8v28.9c0 1.433 0.343 2.533 1.03 3.3 0.68 0.767 1.703 1.15 3.07 1.15v0c0.833 0 1.617-0.167 2.35-0.5v0l0.25 3.95c-1.1 0.4-2.25 0.6-3.45 0.6z" fill="#ffffff" fill-rule="nonzero" stroke="none" stroke-width="1" stroke-linecap="butt" stroke-linejoin="miter" stroke-miterlimit="10" stroke-dasharray="" stroke-dashoffset="0" font-family="none" font-weight="none" font-size="none" text-anchor="none" style="mix-blend-mode: normal" data-fill-palette-color="primary" opacity="1"></path><path transform="translate(0,101.1)" d="M28.8-18.15c2.033 0.567 3.633 1.59 4.8 3.07 1.167 1.487 1.75 3.363 1.75 5.63v0c0 3.033-1.14 5.367-3.42 7-2.287 1.633-5.613 2.45-9.98 2.45v0h-16.7v-35h15.7c4 0 7.093 0.8 9.28 2.4 2.18 1.6 3.27 3.817 3.27 6.65v0c0 1.833-0.423 3.417-1.27 4.75-0.853 1.333-1.997 2.35-3.43 3.05zM20.5-30.95h-10.25v11.2h10.25c2.567 0 4.543-0.477 5.93-1.43 1.38-0.947 2.07-2.337 2.07-4.17v0c0-1.833-0.69-3.227-2.07-4.18-1.387-0.947-3.363-1.42-5.93-1.42zM21.75-4.05c2.833 0 4.967-0.467 6.4-1.4 1.433-0.933 2.15-2.4 2.15-4.4v0c0-3.9-2.85-5.85-8.55-5.85v0h-11.5v11.65zM42.4 0v-26.5h4.8v26.5zM44.8-31.6c-0.933 0-1.707-0.3-2.32-0.9-0.62-0.6-0.93-1.333-0.93-2.2v0c0-0.867 0.31-1.61 0.93-2.23 0.613-0.613 1.387-0.92 2.32-0.92v0c0.933 0 1.71 0.29 2.33 0.87 0.613 0.587 0.92 1.313 0.92 2.18v0c0 0.9-0.307 1.66-0.92 2.28-0.62 0.613-1.397 0.92-2.33 0.92zM64.4 0.3c-2.567 0-4.55-0.71-5.95-2.13-1.4-1.413-2.1-3.403-2.1-5.97v0-29.3h4.8v28.9c0 1.433 0.343 2.533 1.03 3.3 0.68 0.767 1.703 1.15 3.07 1.15v0c0.833 0 1.617-0.167 2.35-0.5v0l0.25 3.95c-1.1 0.4-2.25 0.6-3.45 0.6zM92.1-26.5h4.8v26.5h-4.6v-4.2c-1.067 1.467-2.417 2.583-4.05 3.35-1.633 0.767-3.433 1.15-5.4 1.15v0c-2.567 0-4.867-0.567-6.9-1.7-2.033-1.133-3.623-2.727-4.77-4.78-1.153-2.047-1.73-4.403-1.73-7.07v0c0-2.667 0.577-5.017 1.73-7.05 1.147-2.033 2.737-3.617 4.77-4.75 2.033-1.133 4.333-1.7 6.9-1.7v0c1.9 0 3.65 0.357 5.25 1.07 1.6 0.72 2.933 1.78 4 3.18v0zM83.25-3.9c1.667 0 3.183-0.393 4.55-1.18 1.367-0.78 2.433-1.88 3.2-3.3 0.767-1.413 1.15-3.037 1.15-4.87v0c0-1.833-0.383-3.46-1.15-4.88-0.767-1.413-1.833-2.503-3.2-3.27-1.367-0.767-2.883-1.15-4.55-1.15v0c-1.7 0-3.223 0.383-4.57 1.15-1.353 0.767-2.42 1.857-3.2 3.27-0.787 1.42-1.18 3.047-1.18 4.88v0c0 1.833 0.393 3.457 1.18 4.87 0.78 1.42 1.847 2.52 3.2 3.3 1.347 0.787 2.87 1.18 4.57 1.18zM113.6 0.3c-2.167 0-4.25-0.293-6.25-0.88-2-0.58-3.567-1.32-4.7-2.22v0l2-3.8c1.167 0.833 2.583 1.5 4.25 2 1.667 0.5 3.35 0.75 5.05 0.75v0c4.2 0 6.3-1.2 6.3-3.6v0c0-0.8-0.283-1.433-0.85-1.9-0.567-0.467-1.273-0.81-2.12-1.03-0.853-0.213-2.063-0.453-3.63-0.72v0c-2.133-0.333-3.873-0.717-5.22-1.15-1.353-0.433-2.513-1.167-3.48-2.2-0.967-1.033-1.45-2.483-1.45-4.35v0c0-2.4 1-4.327 3-5.78 2-1.447 4.683-2.17 8.05-2.17v0c1.767 0 3.533 0.217 5.3 0.65 1.767 0.433 3.217 1.017 4.35 1.75v0l-2.05 3.8c-2.167-1.4-4.717-2.1-7.65-2.1v0c-2.033 0-3.583 0.333-4.65 1-1.067 0.667-1.6 1.55-1.6 2.65v0c0 0.867 0.3 1.55 0.9 2.05 0.6 0.5 1.343 0.867 2.23 1.1 0.88 0.233 2.12 0.5 3.72 0.8v0c2.133 0.367 3.86 0.757 5.18 1.17 1.313 0.42 2.437 1.13 3.37 2.13 0.933 1 1.4 2.4 1.4 4.2v0c0 2.4-1.023 4.307-3.07 5.72-2.053 1.42-4.847 2.13-8.38 2.13zM145.1-26.75c2.567 0 4.867 0.567 6.9 1.7 2.033 1.133 3.627 2.717 4.78 4.75 1.147 2.033 1.72 4.383 1.72 7.05v0c0 2.667-0.573 5.023-1.72 7.07-1.153 2.053-2.747 3.647-4.78 4.78-2.033 1.133-4.333 1.7-6.9 1.7v0c-1.9 0-3.64-0.367-5.22-1.1-1.587-0.733-2.93-1.8-4.03-3.2v0 13.7h-4.8v-36.2h4.6v4.2c1.067-1.467 2.417-2.577 4.05-3.33 1.633-0.747 3.433-1.12 5.4-1.12zM144.7-3.9c1.7 0 3.227-0.393 4.58-1.18 1.347-0.78 2.413-1.88 3.2-3.3 0.78-1.413 1.17-3.037 1.17-4.87v0c0-1.833-0.39-3.46-1.17-4.88-0.787-1.413-1.853-2.503-3.2-3.27-1.353-0.767-2.88-1.15-4.58-1.15v0c-1.667 0-3.173 0.39-4.52 1.17-1.353 0.787-2.42 1.88-3.2 3.28-0.787 1.4-1.18 3.017-1.18 4.85v0c0 1.833 0.383 3.457 1.15 4.87 0.767 1.42 1.833 2.52 3.2 3.3 1.367 0.787 2.883 1.18 4.55 1.18zM185.05-26.5h4.8v26.5h-4.55v-4c-0.967 1.367-2.24 2.423-3.82 3.17-1.587 0.753-3.313 1.13-5.18 1.13v0c-3.533 0-6.317-0.977-8.35-2.93-2.033-1.947-3.05-4.82-3.05-8.62v0-15.25h4.8v14.7c0 2.567 0.617 4.507 1.85 5.82 1.233 1.32 3 1.98 5.3 1.98v0c2.533 0 4.533-0.767 6-2.3 1.467-1.533 2.2-3.7 2.2-6.5v0zM203.6-22.05c0.833-1.533 2.067-2.7 3.7-3.5 1.633-0.8 3.617-1.2 5.95-1.2v0 4.65c-0.267-0.033-0.633-0.05-1.1-0.05v0c-2.6 0-4.64 0.773-6.12 2.32-1.487 1.553-2.23 3.763-2.23 6.63v0 13.2h-4.8v-26.5h4.6z" fill="#ffffff" fill-rule="nonzero" stroke="none" stroke-width="1" stroke-linecap="butt" stroke-linejoin="miter" stroke-miterlimit="10" stroke-dasharray="" stroke-dashoffset="0" font-family="none" font-weight="none" font-size="none" text-anchor="none" style="mix-blend-mode: normal" data-fill-palette-color="primary" opacity="1"></path></g></svg></g></svg></g></svg></g></svg></g><g transform="matrix(1,0,0,1,0,16.561866109060276)"><svg viewBox="0 0 188.17519287833832 167.87626778187942" height="167.87626778187942" width="188.17519287833832"><g><svg xmlns="http://www.w3.org/2000/svg" xmlns:xlink="http://www.w3.org/1999/xlink" version="1.1" x="0" y="0" viewBox="8.386999999999999 13.004999999999999 84.192 75.11" enable-background="new 0 0 100 100" xml:space="preserve" height="167.87626778187942" width="188.17519287833832" class="icon-icon-0" data-fill-palette-color="accent" id="icon-0"><g fill="#fffafe" data-fill-palette-color="accent"><path d="M49.569 22.967c-9.975-5.691-20.677-9.125-31.045-9.962v58.351c10.367 0.814 21.05 4.154 31.045 9.699V22.967z" fill="#fffafe" data-fill-palette-color="accent"></path><path d="M82.444 13.005c-10.368 0.838-21.071 4.271-31.045 9.962v58.087c9.993-5.545 20.679-8.885 31.045-9.699V13.005z" fill="#fffafe" data-fill-palette-color="accent"></path><path d="M49.229 84.073c0.814 0.278 1.671 0.29 2.485 0.012 11.657-5.043 23.865-7.313 35.798-6.79V19.524c-1.074-0.048-2.155-0.059-3.24-0.055v53.594l-0.852 0.056c-10.672 0.697-21.732 4.177-32.021 10.048-0.594 0.203-1.237 0.203-1.83 0-10.29-5.871-21.349-9.351-32.021-10.048l-0.854-0.056V19.469c-1.084-0.004-2.166 0.006-3.239 0.055v57.771C25.387 76.771 37.569 79.03 49.229 84.073z" fill="#fffafe" data-fill-palette-color="accent"></path><path d="M92.579 26.009c-1.07-0.149-2.157-0.228-3.237-0.335v53.55l-0.968-0.056c-12.195-0.699-25.06 1.777-36.975 7.065l-0.916 0.381-0.915-0.381c-11.917-5.288-24.781-7.765-36.976-7.065l-0.967 0.056v-53.55c-1.081 0.108-2.168 0.187-3.238 0.335v58.707c0.594 0.307 1.044 0.748 1.044 0.748 12.951-1.75 26.393-1.536 39.18 2.651 0.588-0.058 1.212-0.095 1.873-0.095 0.661 0 1.285 0.037 1.872 0.095 12.785-4.188 26.229-4.401 39.179-2.651 0 0 0.474-0.462 1.044-0.748V26.009z" fill="#fffafe" data-fill-palette-color="accent"></path></g></svg></g></svg></g></svg></g><defs></defs></svg><rect width="395.52" height="159.71614572738653" fill="none" stroke="none" visibility="hidden"></rect></g></svg></g></svg>